<svg id="a0638222-1cd0-4a8b-ba54-6a72d22f233c" data-name="Layer 1" xmlns="http://www.w3.org/2000/svg" xmlns:xlink="http://www.w3.org/1999/xlink" viewBox="0 0 888.9882 220.0316">
  <defs>
    <clipPath id="48ed3e83-f3f2-459f-89e7-a5151125aff1" transform="translate(-6.506 -9.984)">
      <rect width="902" height="240" style="fill: none"/>
    </clipPath>
  </defs>
  <title>SockCandy_Logo_031320</title>
  <g style="clip-path: url(#48ed3e83-f3f2-459f-89e7-a5151125aff1)">
    <path d="M33.5,180.1123c8.166,0,16.559-6.124,16.559-19.734,0-32.665-43.553-36.748-43.553-68.052,0-21.55,16.106-34.479,36.748-34.479A41.62,41.62,0,0,1,72.29,69.4163l-.908,24.951H69.567c-1.814-20.642-12.929-32.438-25.179-32.438-10.888,0-17.693,4.537-18.373,15.426-.454,29.261,50.811,30.849,50.811,68.505,0,25.859-15.879,38.335-41.738,38.335-16.559,0-26.087-6.577-26.087-6.577l.682-33.8H11.27c2.722,28.581,9.301,36.294,22.23,36.294" transform="translate(-6.506 -9.984)" style="fill: #010101"/>
    <path d="M130.5234,183.9692c-29.943,0-46.048-34.252-46.048-62.607,0-29.036,16.332-63.289,46.048-63.289,30.169,0,45.821,34.253,45.821,63.742,0,27.902-16.786,62.154-45.821,62.154m16.105-67.144c0-24.499-2.495-55.122-16.105-55.122-14.518,0-16.56,30.623-16.56,55.122,0,27.22,1.815,63.287,16.56,63.287,14.971,0,16.105-36.067,16.105-63.287" transform="translate(-6.506 -9.984)" style="fill: #010101"/>
    <path d="M186.6338,122.4961c0-34.026,19.281-64.649,42.645-64.649,21.323,0,39.243,26.541,39.243,52.626h-21.523c-1.32-25.013-2.62-47.61-17.285-48.543-12.178-.776-17.674,24.498-17.674,41.966,0,25.631,9.3,53.532,30.395,53.532,10.662,0,20.869-9.753,26.994-23.363h2.041c-3.855,31.304-19.281,50.13-39.923,50.13-25.179,0-44.913-25.178-44.913-61.699" transform="translate(-6.506 -9.984)" style="fill: #010101"/>
    <polygon points="304.885 122.265 304.885 170.128 279.479 170.128 279.479 16.786 304.659 0 304.885 0 304.885 113.872 349.346 51.946 356.378 51.946 327.115 92.096 369.534 170.128 338.231 170.128 310.557 114.552 304.885 122.265" style="fill: #010101"/>
    <path d="M576.834,170.585c-4.763,9.981-13.61,13.61-19.9611,13.61-20.4159,0-34.706-26.086-33.3459-58.751h53.307V109.793c0-19.508-6.8051-32.892-22.6831-32.892-16.3319,0-26.3129,17.24-28.8089,29.943h-1.815c-.4541-30.849,18.6009-48.997,41.2859-48.997,22.4561,0,38.335,15.425,38.335,42.645V155.16c0,8.393.2261,16.56.4531,24.952H577.062Zm0-17.92V128.847c-37.6541,0-37.429,49.905-16.559,49.905,8.62,0,16.559-7.713,16.559-26.087" transform="translate(-6.506 -9.984)" style="fill: #010101"/>
    <path d="M646.6357,57.8472h.2259v22.91h.2281c4.763-15.425,13.609-22.91,24.95-22.91,18.828,0,24.953,14.971,24.953,37.654v84.611h-26.086V95.0492c0-13.612-1.815-24.953-10.435-24.953-7.94,0-13.61,12.476-13.61,24.953v85.063H620.0947V74.6332Z" transform="translate(-6.506 -9.984)" style="fill: #010101"/>
    <path d="M791.9754,180.1121h-25.407V163.78c-5.896,17.467-16.332,20.415-23.591,20.415-18.828,0-32.437-31.758-32.437-63.287,0-31.304,13.609-63.061,32.437-63.061,7.259,0,17.695,2.722,23.591,20.416V26.7691l25.179-16.785h.228Zm-25.407-25.406v-67.37c-2.948-10.207-7.713-18.828-12.93-18.828-9.526,0-14.063,26.087-14.063,52.4,0,26.54,4.537,52.626,14.063,52.626,5.217,0,9.982-8.619,12.93-18.828" transform="translate(-6.506 -9.984)" style="fill: #010101"/>
    <polygon points="832.277 220.032 821.616 220.032 841.579 173.985 796.437 51.946 824.112 51.946 854.734 139.052 881.729 51.946 888.988 51.946 832.277 220.032" style="fill: #010101"/>
    <path d="M425.855,122.4961c0-34.026,19.281-64.649,42.645-64.649,21.323,0,39.243,26.541,39.243,52.626H486.22c-1.32-25.013-2.62-47.61-17.285-48.543-12.178-.776-17.674,24.498-17.674,41.966,0,25.631,9.3,53.532,30.395,53.532,10.662,0,20.869-9.753,26.994-23.363h2.041c-3.855,31.304-19.281,50.13-39.923,50.13-25.179,0-44.913-25.178-44.913-61.699" transform="translate(-6.506 -9.984)" style="fill: #010101"/>
  </g>
</svg>
